<?xml version="1.0" encoding="UTF-8" standalone="no"?>
<!-- Created with Inkscape (http://www.inkscape.org/) -->

<svg
   width="2048"
   height="2048"
   viewBox="0 0 541.86665 541.86665"
   version="1.1"
   id="svg5"
   inkscape:version="1.1.2 (0a00cf5339, 2022-02-04)"
   sodipodi:docname="2.svg"
   xmlns:inkscape="http://www.inkscape.org/namespaces/inkscape"
   xmlns:sodipodi="http://sodipodi.sourceforge.net/DTD/sodipodi-0.dtd"
   xmlns="http://www.w3.org/2000/svg"
   xmlns:svg="http://www.w3.org/2000/svg">
  <sodipodi:namedview
     id="namedview7"
     pagecolor="#505050"
     bordercolor="#ffffff"
     borderopacity="1"
     inkscape:pageshadow="0"
     inkscape:pageopacity="0"
     inkscape:pagecheckerboard="1"
     inkscape:document-units="px"
     showgrid="false"
     units="px"
     width="2048px"
     inkscape:zoom="0.42084768"
     inkscape:cx="626.11727"
     inkscape:cy="1163.1287"
     inkscape:window-width="1920"
     inkscape:window-height="946"
     inkscape:window-x="0"
     inkscape:window-y="0"
     inkscape:window-maximized="1"
     inkscape:current-layer="layer1" />
  <defs
     id="defs2" />
  <g
     inkscape:label="Layer 1"
     inkscape:groupmode="layer"
     id="layer1"
     style="display:inline">
    <g
       style="clip-rule:evenodd;display:none;fill:#000000;fill-opacity:0.25;fill-rule:evenodd;stroke:#52ffcb;stroke-width:27.0662;stroke-linecap:round;stroke-linejoin:round;stroke-miterlimit:1.5;stroke-dasharray:none;stroke-opacity:1"
       id="g21"
       transform="matrix(0,0.03358463,-0.03358463,0,440.2018,234.8914)"
       inkscape:label="0">
      <g
         transform="matrix(1.58586,0,0,1.58586,-437.068,-239.369)"
         id="g11"
         style="fill:#000000;fill-opacity:0.25;stroke:#52ffcb;stroke-width:17.0672;stroke-miterlimit:1.5;stroke-dasharray:none;stroke-opacity:1">
        <path
   d="m 938.621,292.469 c 89.669,-0.329 81.619,209.988 153.199,255.856 92.42,59.221 216.56,-151.824 293.52,-85.251 72.67,62.875 -74.26,172.131 -71.08,266.603 2.7,79.923 161.83,83.524 142.73,149.159 -19.24,66.146 -117.04,51.559 -162.08,125.374 -47.19,77.35 40.77,162.03 -23.56,193.25 -75.04,36.42 -160.05,-91.73 -340.389,-86.76 -230.441,6.34 -248.498,135.89 -322.147,90.16 -81.81,-50.8 -15.566,-133 -26.891,-196.63 C 567.399,922.627 448.275,955.375 446.095,873.981 444.416,811.3 568.438,812.332 576.455,712.65 581.82,645.946 474.225,534.477 534.779,482.182 c 62.908,-54.327 145.386,109.044 219.595,65.566 113.54,-66.521 76.239,-254.883 184.247,-255.279 z m 152.619,461.93 c -27.6,0 -50,22.404 -50,50 0,27.596 22.4,50 50,50 27.59,0 50,-22.404 50,-50 0,-27.596 -22.41,-50 -50,-50 z m -323.667,-13.42 c -27.595,0 -50,22.404 -50,50 0,27.595 22.405,50 50,50 27.596,0 50,-22.405 50,-50 0,-27.596 -22.404,-50 -50,-50 z"
   style="fill:#000000;fill-opacity:0.25;stroke:#52ffcb;stroke-width:24.8386;stroke-miterlimit:1.5;stroke-dasharray:none;stroke-opacity:1"
   id="path9" />

    </g>
    </g>
    <g
       style="clip-rule:evenodd;display:none;fill-rule:evenodd;stroke-linecap:round;stroke-linejoin:round;stroke-miterlimit:1.5"
       id="g32"
       transform="matrix(-0.03456134,0.03456134,-0.03456134,-0.03456134,440.63276,358.91133)"
       inkscape:label="7">
      <path
         d="m 1049.9375,656.52141 c 760.2578,5.10554 760.8382,6.92176 758.7642,52.9399 -3.798,84.19191 -5.1038,82.80158 -9.064,133.187 -24.8193,316.12179 -213.3624,449.14579 -768.7414,450.20409 -549.04701,1.0498 -724.16652,-193.297 -724.82883,-470.62198 -0.18947,-79.33388 -0.59231,-6.52233 -0.4532,-123.56568 0.0606,-50.05085 10.75646,-47.06964 744.32323,-42.14333 z m 1.1693,197.48421 c -59.47419,0 -107.75918,48.28412 -107.75918,107.76342 0,59.47076 48.28499,107.75226 107.75918,107.75226 59.4793,0 107.7609,-48.2815 107.7609,-107.75226 0,-59.4793 -48.2816,-107.76342 -107.7609,-107.76342 z"
         style="fill:#000000;fill-opacity:0.25;stroke:#52ffcb;stroke-width:27.0662;stroke-miterlimit:1.5;stroke-dasharray:none;stroke-opacity:1"
         id="path23" />
    </g>
    <g
       style="clip-rule:evenodd;display:none;fill-rule:evenodd;stroke-width:40.682;stroke-linecap:round;stroke-linejoin:round;stroke-miterlimit:1.5;stroke-dasharray:none"
       id="g43"
       transform="matrix(-0.03251844,0,0,-0.03251844,304.72064,444.1611)"
       inkscape:label="6">
      <path
         d="m 1036.83,433.704 c 738.43,-0.523 679.4,-246.172 856.65,-236.188 334.01,18.815 -96.94,1693.314 -883.19,1681.074 C 365.014,1868.55 -174.981,216.972 186.883,214.926 352.504,213.99 324.419,434.209 1036.83,433.704 Z m 3.44,630.686 c -61.107,0 -110.715,49.61 -110.715,110.71 0,61.11 49.608,110.71 110.715,110.71 61.1,0 110.71,-49.6 110.71,-110.71 0,-61.1 -49.61,-110.71 -110.71,-110.71 z"
         style="fill:#000000;fill-opacity:0.25;stroke:#52ffcb;stroke-width:40.682;stroke-miterlimit:1.5;stroke-dasharray:none;stroke-opacity:1"
         id="path34" />
    </g>
    <g
       style="clip-rule:evenodd;display:none;fill-rule:evenodd;stroke-linecap:round;stroke-linejoin:round;stroke-miterlimit:1.5"
       id="g57"
       transform="matrix(0.03456134,-0.03456134,0.03456134,0.03456134,105.77085,362.77501)"
       inkscape:label="5">
      <g
         transform="matrix(1.25648,0,0,1.26536,259.988,331.616)"
         id="g47"
         inkscape:label="5">
        <path
   d="m 546.387,31.148 c 300.831,0 545.063,244.236 545.063,545.066 0,300.831 -244.232,545.066 -545.063,545.066 -300.83,0 -545.066,-244.235 -545.066,-545.066 0,-300.83 244.236,-545.066 545.066,-545.066 z m 0,469.504 c 41.705,0 75.563,33.858 75.563,75.562 0,41.705 -33.858,75.563 -75.563,75.563 -41.704,0 -75.562,-33.858 -75.562,-75.563 0,-41.704 33.858,-75.562 75.562,-75.562 z"
   style="fill:#000000;fill-opacity:0.25;stroke:#52ffcb;stroke-width:21.4656;stroke-miterlimit:1.5;stroke-dasharray:none;stroke-opacity:1"
   id="path45" />

    </g>
    </g>
    <g
       style="clip-rule:evenodd;display:none;fill-rule:evenodd;stroke-linecap:round;stroke-linejoin:round;stroke-miterlimit:1.5"
       id="g68"
       transform="matrix(0,0.02314146,-0.02314146,0,160.14025,248.14772)"
       inkscape:label="4">
      <path
         d="m 1000.28,543.276 c 277.22,3.69 615.57,129.706 630.56,431.838 14.99,302.136 -160.15,610.536 -474.68,613.976 C 527.916,1595.95 337.796,1266.24 337.512,991.196 337.229,716.154 723.06,539.586 1000.28,543.276 Z M 700.439,922.344 c -77.982,0 -141.294,63.311 -141.294,141.296 0,77.98 63.312,141.29 141.294,141.29 77.982,0 141.293,-63.31 141.293,-141.29 0,-77.985 -63.311,-141.296 -141.293,-141.296 z m 557.181,0.526 c -77.98,0 -141.29,63.311 -141.29,141.29 0,77.98 63.31,141.3 141.29,141.3 77.98,0 141.29,-63.32 141.29,-141.3 0,-77.979 -63.31,-141.29 -141.29,-141.29 z"
         style="fill:#000000;fill-opacity:0.25;stroke:#52ffcb;stroke-width:57.1665;stroke-miterlimit:1.5;stroke-dasharray:none;stroke-opacity:1"
         id="path59" />
    </g>
    <g
       style="clip-rule:evenodd;display:none;fill-rule:evenodd;stroke-linecap:round;stroke-linejoin:round;stroke-miterlimit:1.5"
       id="g82"
       transform="matrix(2.3959529e-8,-0.04140368,0.04140368,2.3959529e-8,136.61515,218.50288)"
       inkscape:label="3">
      <g
         transform="matrix(0.87991,0.639306,-0.639306,0.87991,751.444,-569.204)"
         id="g72">
        <path
   d="m 28.612,995.941 c 0.369,-163.033 73.406,-364.838 218.958,-390.466 293.515,-51.682 360.529,113.921 781.87,110.467 390.48,-3.201 558.89,-130.013 744.23,-124.448 148.07,4.445 244.11,142.658 243.49,348.115 -0.72,242.061 -66.45,379.661 -260.36,386.491 -294.25,10.38 -352.87,-130.86 -713.42,-138.43 C 614.138,1178.66 530.494,1361.6 263.677,1352.58 113.175,1347.49 28.236,1162.11 28.612,995.941 Z M 1041.33,878.648 c -42.454,0 -76.924,34.47 -76.924,76.928 0,42.457 34.47,76.924 76.924,76.924 42.46,0 76.93,-34.467 76.93,-76.924 0,-42.458 -34.47,-76.928 -76.93,-76.928 z"
   style="fill:#000000;fill-opacity:0.25;stroke:#52ffcb;stroke-width:29.3771;stroke-miterlimit:1.5;stroke-dasharray:none;stroke-opacity:1"
   id="path70" />

    </g>
    </g>
    <g
       style="clip-rule:evenodd;display:inline;fill-rule:evenodd;stroke-linecap:round;stroke-linejoin:round;stroke-miterlimit:1.5"
       id="g99"
       transform="matrix(0.07319152,0,0,0.07319152,194.33148,70.851746)"
       inkscape:label="2">
      <path
         d="M 392.479,525.509 H 1700.71 l -643.38,430.706 z m 664.841,133.675 c -20.43,0 -37.01,10.017 -37.01,22.354 0,12.337 16.58,22.353 37.01,22.353 20.42,0 37.01,-10.016 37.01,-22.353 0,-12.337 -16.59,-22.354 -37.01,-22.354 z"
         style="fill:#000000;fill-opacity:0.25;stroke:#52ffcb;stroke-width:18.0747;stroke-miterlimit:1.5;stroke-dasharray:none;stroke-opacity:1"
         id="path84" />
      <path
         d="m 392.5,525.509 664.82,430.706 -10.72,687.495 z m 504.143,531.281 c -11.065,-17.17 -28.467,-25.68 -38.838,-19 -10.37,6.68 -9.807,26.05 1.258,43.22 11.065,17.17 28.467,25.68 38.838,19 10.37,-6.68 9.806,-26.05 -1.258,-43.22 z"
         style="fill:#000000;fill-opacity:0.25;stroke:#52ffcb;stroke-width:18.0747;stroke-miterlimit:1.5;stroke-dasharray:none;stroke-opacity:1"
         id="path86" />
      <path
         d="M 1057.32,956.215 1700.71,525.509 1046.6,1643.71 Z m 160.49,89.375 c -10.58,17.47 -10.6,36.85 -0.05,43.24 10.55,6.39 27.71,-2.61 38.29,-20.08 10.58,-17.47 10.6,-36.85 0.05,-43.24 -10.55,-6.39 -27.71,2.61 -38.29,20.08 z"
         style="fill:#000000;fill-opacity:0.25;stroke:#52ffcb;stroke-width:18.0747;stroke-miterlimit:1.5;stroke-dasharray:none;stroke-opacity:1"
         id="path88" />
    </g>
    <g
       style="clip-rule:evenodd;display:none;fill-rule:evenodd;stroke-linecap:round;stroke-linejoin:round;stroke-miterlimit:1.5"
       id="g110"
       transform="matrix(0.03066079,0.03066086,-0.03066086,0.03066079,374.58284,111.0295)"
       inkscape:label="1">
      <path
         d="m 906.981,458.787 c 365.639,7.569 635.069,315.014 618.519,715.633 -12.68,306.88 -134.21,702.56 -623.51,695.35 C 424.27,1862.72 245.01,1547.64 251.059,1136.8 256.695,753.999 588.348,452.19 906.981,458.787 Z m 4.351,330.11 c -69.985,0 -126.804,56.819 -126.804,126.804 0,69.985 56.819,126.809 126.804,126.809 69.985,0 126.808,-56.824 126.808,-126.809 0,-69.985 -56.823,-126.804 -126.808,-126.804 z m -1.111,475.443 c -304.335,1.41 -412.428,31.55 -415.349,136.23 -2.751,98.58 113.188,119.98 427.924,124.56 220.314,3.22 375.824,-33.17 367.874,-140.57 -5.22,-70.53 -96.27,-121.53 -380.449,-120.22 z"
         style="fill:#000000;fill-opacity:0.25;stroke:#52ffcb;stroke-width:30.5094;stroke-miterlimit:1.5;stroke-dasharray:none;stroke-opacity:1"
         id="path101" />
    </g>
  </g>
</svg>
