<svg id="visual" viewBox="0 0 900 900" width="900" height="900" xmlns="http://www.w3.org/2000/svg" xmlns:xlink="http://www.w3.org/1999/xlink" version="1.1"><g stroke-width="1" stroke-linejoin="bevel"><path d="M398 484L317 505L390 577Z" fill="#c6c6c6" stroke="#c6c6c6"></path><path d="M317 505L298 583L390 577Z" fill="#ababab" stroke="#ababab"></path><path d="M390 577L484 519L398 484Z" fill="#777777" stroke="#777777"></path><path d="M529 410L378 390L398 484Z" fill="#303030" stroke="#303030"></path><path d="M398 484L378 390L317 505Z" fill="#5e5e5e" stroke="#5e5e5e"></path><path d="M298 583L394 671L390 577Z" fill="#5e5e5e" stroke="#5e5e5e"></path><path d="M390 577L511 621L484 519Z" fill="#919191" stroke="#919191"></path><path d="M207 399L209 504L317 505Z" fill="#c6c6c6" stroke="#c6c6c6"></path><path d="M317 505L209 504L298 583Z" fill="#c6c6c6" stroke="#c6c6c6"></path><path d="M298 583L323 710L394 671Z" fill="#474747" stroke="#474747"></path><path d="M378 390L297 378L317 505Z" fill="#919191" stroke="#919191"></path><path d="M394 671L511 621L390 577Z" fill="#474747" stroke="#474747"></path><path d="M209 504L203 615L298 583Z" fill="#e2e2e2" stroke="#e2e2e2"></path><path d="M228 707L323 710L298 583Z" fill="#e2e2e2" stroke="#e2e2e2"></path><path d="M394 671L480 697L511 621Z" fill="#777777" stroke="#777777"></path><path d="M621 500L529 410L484 519Z" fill="#777777" stroke="#777777"></path><path d="M484 519L529 410L398 484Z" fill="#303030" stroke="#303030"></path><path d="M378 390L306 324L297 378Z" fill="#777777" stroke="#777777"></path><path d="M381 799L480 697L394 671Z" fill="#303030" stroke="#303030"></path><path d="M297 378L207 399L317 505Z" fill="#ababab" stroke="#ababab"></path><path d="M90 524L124 624L203 615Z" fill="#e2e2e2" stroke="#e2e2e2"></path><path d="M378 273L306 324L378 390Z" fill="#e2e2e2" stroke="#e2e2e2"></path><path d="M297 378L306 324L207 399Z" fill="#ffffff" stroke="#ffffff"></path><path d="M203 615L228 707L298 583Z" fill="#777777" stroke="#777777"></path><path d="M480 697L582 628L511 621Z" fill="#777777" stroke="#777777"></path><path d="M511 621L582 628L484 519Z" fill="#474747" stroke="#474747"></path><path d="M529 410L473 301L378 390Z" fill="#303030" stroke="#303030"></path><path d="M473 301L378 273L378 390Z" fill="#777777" stroke="#777777"></path><path d="M582 628L621 500L484 519Z" fill="#777777" stroke="#777777"></path><path d="M529 410L589 372L473 301Z" fill="#303030" stroke="#303030"></path><path d="M90 524L203 615L209 504Z" fill="#000000" stroke="#000000"></path><path d="M203 615L105 678L228 707Z" fill="#5e5e5e" stroke="#5e5e5e"></path><path d="M288 808L381 799L323 710Z" fill="#ffffff" stroke="#ffffff"></path><path d="M323 710L381 799L394 671Z" fill="#777777" stroke="#777777"></path><path d="M480 697L617 717L582 628Z" fill="#5e5e5e" stroke="#5e5e5e"></path><path d="M621 500L589 372L529 410Z" fill="#5e5e5e" stroke="#5e5e5e"></path><path d="M75 428L90 524L209 504Z" fill="#474747" stroke="#474747"></path><path d="M216 811L288 808L228 707Z" fill="#919191" stroke="#919191"></path><path d="M228 707L288 808L323 710Z" fill="#5e5e5e" stroke="#5e5e5e"></path><path d="M0 619L105 678L124 624Z" fill="#ffffff" stroke="#ffffff"></path><path d="M124 624L105 678L203 615Z" fill="#ababab" stroke="#ababab"></path><path d="M306 324L201 275L207 399Z" fill="#000000" stroke="#000000"></path><path d="M207 399L75 428L209 504Z" fill="#ffffff" stroke="#ffffff"></path><path d="M282 223L201 275L306 324Z" fill="#303030" stroke="#303030"></path><path d="M519 900L514 794L381 799Z" fill="#919191" stroke="#919191"></path><path d="M381 799L514 794L480 697Z" fill="#c6c6c6" stroke="#c6c6c6"></path><path d="M99 293L75 428L207 399Z" fill="#ababab" stroke="#ababab"></path><path d="M90 524L0 619L124 624Z" fill="#919191" stroke="#919191"></path><path d="M514 794L617 717L480 697Z" fill="#5e5e5e" stroke="#5e5e5e"></path><path d="M729 589L722 498L621 500Z" fill="#919191" stroke="#919191"></path><path d="M725 320L580 295L589 372Z" fill="#303030" stroke="#303030"></path><path d="M589 372L580 295L473 301Z" fill="#777777" stroke="#777777"></path><path d="M473 301L512 219L378 273Z" fill="#1b1b1b" stroke="#1b1b1b"></path><path d="M378 273L282 223L306 324Z" fill="#5e5e5e" stroke="#5e5e5e"></path><path d="M388 179L282 223L378 273Z" fill="#ababab" stroke="#ababab"></path><path d="M120 776L216 811L228 707Z" fill="#777777" stroke="#777777"></path><path d="M580 295L512 219L473 301Z" fill="#777777" stroke="#777777"></path><path d="M722 498L683 398L621 500Z" fill="#ffffff" stroke="#ffffff"></path><path d="M621 500L683 398L589 372Z" fill="#ababab" stroke="#ababab"></path><path d="M580 295L616 191L512 219Z" fill="#1b1b1b" stroke="#1b1b1b"></path><path d="M105 678L120 776L228 707Z" fill="#c6c6c6" stroke="#c6c6c6"></path><path d="M512 219L388 179L378 273Z" fill="#919191" stroke="#919191"></path><path d="M312 104L218 206L282 223Z" fill="#474747" stroke="#474747"></path><path d="M282 223L218 206L201 275Z" fill="#303030" stroke="#303030"></path><path d="M201 275L99 293L207 399Z" fill="#e2e2e2" stroke="#e2e2e2"></path><path d="M101 195L99 293L201 275Z" fill="#c6c6c6" stroke="#c6c6c6"></path><path d="M729 589L621 500L582 628Z" fill="#474747" stroke="#474747"></path><path d="M514 794L612 793L617 717Z" fill="#303030" stroke="#303030"></path><path d="M617 717L681 716L582 628Z" fill="#919191" stroke="#919191"></path><path d="M587 900L612 793L514 794Z" fill="#e2e2e2" stroke="#e2e2e2"></path><path d="M612 793L681 716L617 717Z" fill="#919191" stroke="#919191"></path><path d="M681 716L729 589L582 628Z" fill="#5e5e5e" stroke="#5e5e5e"></path><path d="M0 395L0 475L75 428Z" fill="#e2e2e2" stroke="#e2e2e2"></path><path d="M75 428L0 475L90 524Z" fill="#ffffff" stroke="#ffffff"></path><path d="M105 678L0 789L120 776Z" fill="#ababab" stroke="#ababab"></path><path d="M274 900L380 900L288 808Z" fill="#000000" stroke="#000000"></path><path d="M288 808L380 900L381 799Z" fill="#e2e2e2" stroke="#e2e2e2"></path><path d="M274 900L288 808L216 811Z" fill="#5e5e5e" stroke="#5e5e5e"></path><path d="M0 475L0 619L90 524Z" fill="#777777" stroke="#777777"></path><path d="M179 900L274 900L216 811Z" fill="#ababab" stroke="#ababab"></path><path d="M99 293L0 395L75 428Z" fill="#777777" stroke="#777777"></path><path d="M0 619L0 681L105 678Z" fill="#1b1b1b" stroke="#1b1b1b"></path><path d="M120 776L179 900L216 811Z" fill="#474747" stroke="#474747"></path><path d="M380 900L519 900L381 799Z" fill="#ababab" stroke="#ababab"></path><path d="M612 793L696 789L681 716Z" fill="#919191" stroke="#919191"></path><path d="M785 397L683 398L722 498Z" fill="#e2e2e2" stroke="#e2e2e2"></path><path d="M785 397L725 320L683 398Z" fill="#c6c6c6" stroke="#c6c6c6"></path><path d="M683 398L725 320L589 372Z" fill="#777777" stroke="#777777"></path><path d="M71 900L179 900L120 776Z" fill="#5e5e5e" stroke="#5e5e5e"></path><path d="M727 220L616 191L580 295Z" fill="#474747" stroke="#474747"></path><path d="M495 92L409 87L388 179Z" fill="#919191" stroke="#919191"></path><path d="M682 900L696 789L612 793Z" fill="#919191" stroke="#919191"></path><path d="M817 678L824 575L729 589Z" fill="#919191" stroke="#919191"></path><path d="M218 206L101 195L201 275Z" fill="#777777" stroke="#777777"></path><path d="M99 293L0 298L0 395Z" fill="#919191" stroke="#919191"></path><path d="M101 124L101 195L218 206Z" fill="#777777" stroke="#777777"></path><path d="M409 87L312 104L388 179Z" fill="#e2e2e2" stroke="#e2e2e2"></path><path d="M388 179L312 104L282 223Z" fill="#919191" stroke="#919191"></path><path d="M519 900L587 900L514 794Z" fill="#e2e2e2" stroke="#e2e2e2"></path><path d="M101 195L0 298L99 293Z" fill="#777777" stroke="#777777"></path><path d="M729 589L803 528L722 498Z" fill="#5e5e5e" stroke="#5e5e5e"></path><path d="M824 575L803 528L729 589Z" fill="#303030" stroke="#303030"></path><path d="M803 528L785 397L722 498Z" fill="#ffffff" stroke="#ffffff"></path><path d="M495 92L388 179L512 219Z" fill="#c6c6c6" stroke="#c6c6c6"></path><path d="M0 681L0 789L105 678Z" fill="#c6c6c6" stroke="#c6c6c6"></path><path d="M616 191L495 92L512 219Z" fill="#1b1b1b" stroke="#1b1b1b"></path><path d="M785 397L774 317L725 320Z" fill="#ffffff" stroke="#ffffff"></path><path d="M725 320L727 220L580 295Z" fill="#ababab" stroke="#ababab"></path><path d="M616 191L627 85L495 92Z" fill="#777777" stroke="#777777"></path><path d="M817 678L729 589L681 716Z" fill="#303030" stroke="#303030"></path><path d="M803 528L900 424L785 397Z" fill="#ffffff" stroke="#ffffff"></path><path d="M900 303L789 205L774 317Z" fill="#e2e2e2" stroke="#e2e2e2"></path><path d="M774 317L727 220L725 320Z" fill="#777777" stroke="#777777"></path><path d="M0 789L71 900L120 776Z" fill="#474747" stroke="#474747"></path><path d="M782 775L817 678L681 716Z" fill="#ffffff" stroke="#ffffff"></path><path d="M782 775L681 716L696 789Z" fill="#303030" stroke="#303030"></path><path d="M200 73L101 124L218 206Z" fill="#ababab" stroke="#ababab"></path><path d="M101 195L0 178L0 298Z" fill="#474747" stroke="#474747"></path><path d="M200 73L218 206L312 104Z" fill="#5e5e5e" stroke="#5e5e5e"></path><path d="M786 900L782 775L696 789Z" fill="#000000" stroke="#000000"></path><path d="M326 0L200 73L312 104Z" fill="#000000" stroke="#000000"></path><path d="M326 0L312 104L409 87Z" fill="#1b1b1b" stroke="#1b1b1b"></path><path d="M587 900L682 900L612 793Z" fill="#303030" stroke="#303030"></path><path d="M101 124L0 178L101 195Z" fill="#919191" stroke="#919191"></path><path d="M685 79L627 85L616 191Z" fill="#ffffff" stroke="#ffffff"></path><path d="M487 0L395 0L409 87Z" fill="#303030" stroke="#303030"></path><path d="M0 789L0 900L71 900Z" fill="#c6c6c6" stroke="#c6c6c6"></path><path d="M487 0L409 87L495 92Z" fill="#777777" stroke="#777777"></path><path d="M395 0L326 0L409 87Z" fill="#777777" stroke="#777777"></path><path d="M200 73L126 0L101 124Z" fill="#5e5e5e" stroke="#5e5e5e"></path><path d="M101 124L0 91L0 178Z" fill="#1b1b1b" stroke="#1b1b1b"></path><path d="M727 220L685 79L616 191Z" fill="#ffffff" stroke="#ffffff"></path><path d="M774 317L789 205L727 220Z" fill="#000000" stroke="#000000"></path><path d="M900 303L774 317L785 397Z" fill="#919191" stroke="#919191"></path><path d="M900 573L900 528L824 575Z" fill="#ffffff" stroke="#ffffff"></path><path d="M824 575L900 528L803 528Z" fill="#1b1b1b" stroke="#1b1b1b"></path><path d="M900 573L824 575L900 676Z" fill="#303030" stroke="#303030"></path><path d="M900 676L824 575L817 678Z" fill="#ffffff" stroke="#ffffff"></path><path d="M601 0L487 0L495 92Z" fill="#777777" stroke="#777777"></path><path d="M900 528L900 424L803 528Z" fill="#303030" stroke="#303030"></path><path d="M778 117L685 79L727 220Z" fill="#303030" stroke="#303030"></path><path d="M627 85L601 0L495 92Z" fill="#919191" stroke="#919191"></path><path d="M326 0L207 0L200 73Z" fill="#5e5e5e" stroke="#5e5e5e"></path><path d="M900 803L817 678L782 775Z" fill="#000000" stroke="#000000"></path><path d="M900 803L900 676L817 678Z" fill="#c6c6c6" stroke="#c6c6c6"></path><path d="M682 900L786 900L696 789Z" fill="#ffffff" stroke="#ffffff"></path><path d="M126 0L0 91L101 124Z" fill="#ababab" stroke="#ababab"></path><path d="M686 0L601 0L627 85Z" fill="#777777" stroke="#777777"></path><path d="M900 424L900 303L785 397Z" fill="#303030" stroke="#303030"></path><path d="M789 205L778 117L727 220Z" fill="#e2e2e2" stroke="#e2e2e2"></path><path d="M207 0L126 0L200 73Z" fill="#1b1b1b" stroke="#1b1b1b"></path><path d="M900 197L778 117L789 205Z" fill="#5e5e5e" stroke="#5e5e5e"></path><path d="M685 79L686 0L627 85Z" fill="#000000" stroke="#000000"></path><path d="M786 900L900 803L782 775Z" fill="#474747" stroke="#474747"></path><path d="M778 117L686 0L685 79Z" fill="#ababab" stroke="#ababab"></path><path d="M900 303L900 197L789 205Z" fill="#ababab" stroke="#ababab"></path><path d="M778 117L826 0L686 0Z" fill="#303030" stroke="#303030"></path><path d="M126 0L0 0L0 91Z" fill="#1b1b1b" stroke="#1b1b1b"></path><path d="M786 900L900 900L900 803Z" fill="#303030" stroke="#303030"></path><path d="M900 197L900 90L778 117Z" fill="#ffffff" stroke="#ffffff"></path><path d="M900 90L826 0L778 117Z" fill="#919191" stroke="#919191"></path><path d="M900 90L900 0L826 0Z" fill="#ffffff" stroke="#ffffff"></path></g></svg>